<svg width="22" height="21" viewBox="0 0 22 21" fill="none" xmlns="http://www.w3.org/2000/svg">
<path d="M17.6551 5.3306C16.8653 5.08158 15.9973 4.97485 15.1648 4.97485C13.7774 4.97485 12.2832 5.25945 11.2516 6.0421C10.2199 5.25945 8.72572 4.97485 7.3383 4.97485C5.95087 4.97485 4.45672 5.25945 3.42505 6.0421V16.4656C3.42505 16.6435 3.60292 16.8213 3.7808 16.8213C3.85195 16.8213 3.88752 16.7858 3.95867 16.7858C4.9192 16.3233 6.30662 16.0031 7.3383 16.0031C8.72572 16.0031 10.2199 16.2877 11.2516 17.0704C12.2121 16.4656 13.9553 16.0031 15.1648 16.0031C16.3388 16.0031 17.5483 16.2166 18.5444 16.7502C18.6156 16.7858 18.6512 16.7858 18.7223 16.7858C18.9002 16.7858 19.0781 16.6079 19.0781 16.43V6.0421C18.6512 5.72193 18.1887 5.50848 17.6551 5.3306ZM17.6551 14.9359C16.8724 14.6868 16.0186 14.5801 15.1648 14.5801C13.9553 14.5801 12.2121 15.0426 11.2516 15.6474V7.4651C12.2121 6.86033 13.9553 6.39785 15.1648 6.39785C16.0186 6.39785 16.8724 6.50458 17.6551 6.7536V14.9359Z" fill="#6C7989"/>
<path d="M15.1648 9.24385C15.7909 9.24385 16.3957 9.30789 16.9436 9.42884V8.34736C16.3815 8.24064 15.7767 8.1766 15.1648 8.1766C13.9553 8.1766 12.8595 8.38294 11.963 8.76715V9.94824C12.767 9.49288 13.8841 9.24385 15.1648 9.24385Z" fill="#6C7989"/>
<path d="M11.963 10.6597V11.8408C12.767 11.3855 13.8841 11.1364 15.1648 11.1364C15.7909 11.1364 16.3957 11.2005 16.9436 11.3214V10.24C16.3815 10.1332 15.7767 10.0692 15.1648 10.0692C13.9553 10.0692 12.8595 10.2826 11.963 10.6597Z" fill="#6C7989"/>
<path d="M15.1648 11.9689C13.9553 11.9689 12.8595 12.1752 11.963 12.5594V13.7405C12.767 13.2852 13.8841 13.0361 15.1648 13.0361C15.7909 13.0361 16.3957 13.1002 16.9436 13.2211V12.1397C16.3815 12.0258 15.7767 11.9689 15.1648 11.9689Z" fill="#6C7989"/>
</svg>
