<svg width="21" height="21" viewBox="0 0 21 21" fill="none" xmlns="http://www.w3.org/2000/svg">
<path d="M12.3914 9.67217V4.84059L9.97564 2.4248L7.55985 4.84059V6.45112H2.72827V17.7248H17.223V9.67217H12.3914ZM5.94932 16.1143H4.3388V14.5038H5.94932V16.1143ZM5.94932 12.8932H4.3388V11.2827H5.94932V12.8932ZM5.94932 9.67217H4.3388V8.06165H5.94932V9.67217ZM10.7809 16.1143H9.17038V14.5038H10.7809V16.1143ZM10.7809 12.8932H9.17038V11.2827H10.7809V12.8932ZM10.7809 9.67217H9.17038V8.06165H10.7809V9.67217ZM10.7809 6.45112H9.17038V4.84059H10.7809V6.45112ZM15.6125 16.1143H14.002V14.5038H15.6125V16.1143ZM15.6125 12.8932H14.002V11.2827H15.6125V12.8932Z" fill="#6C7989"/>
</svg>
