<svg width="35" height="36" viewBox="0 0 35 36" fill="none" xmlns="http://www.w3.org/2000/svg">
<path d="M16.6562 17.9299H9.90625V14.9768C9.90625 15.0887 9.9507 15.196 10.0298 15.2751C10.1089 15.3542 10.2162 15.3987 10.3281 15.3987H16.2344C16.3463 15.3987 16.4536 15.3542 16.5327 15.2751C16.6118 15.196 16.6562 15.0887 16.6562 14.9768V14.344C16.6562 13.5458 16.0395 13.0784 15.2328 12.8801L15.1291 12.8522C14.7511 12.7367 12.3557 12.0212 11.3828 12.0237C10.9912 12.0237 10.6156 12.1792 10.3387 12.4562C10.0618 12.7331 9.90625 13.1086 9.90625 13.5002V11.1799C9.90625 10.8475 9.84078 10.5184 9.71357 10.2113C9.58636 9.90416 9.39991 9.62512 9.16486 9.39007C8.92982 9.15502 8.65077 8.96857 8.34367 8.84136C8.03656 8.71415 7.70741 8.64868 7.375 8.64868C7.04259 8.64868 6.71344 8.71415 6.40633 8.84136C6.09923 8.96857 5.82018 9.15502 5.58514 9.39007C5.35009 9.62512 5.16364 9.90416 5.03643 10.2113C4.90922 10.5184 4.84375 10.8475 4.84375 11.1799V23.8362C4.84375 24.2837 5.02154 24.713 5.33801 25.0294C5.65447 25.3459 6.0837 25.5237 6.53125 25.5237H7.375V26.7893C7.375 26.9012 7.41945 27.0085 7.49856 27.0876C7.57768 27.1667 7.68499 27.2112 7.79688 27.2112H9.48438C9.59626 27.2112 9.70357 27.1667 9.78269 27.0876C9.8618 27.0085 9.90625 26.9012 9.90625 26.7893V25.5237H25.0938V26.7893C25.0938 26.9012 25.1382 27.0085 25.2173 27.0876C25.2964 27.1667 25.4037 27.2112 25.5156 27.2112H27.2031C27.315 27.2112 27.4223 27.1667 27.5014 27.0876C27.5806 27.0085 27.625 26.9012 27.625 26.7893V25.5237H28.4688C28.9163 25.5237 29.3455 25.3459 29.662 25.0294C29.9785 24.713 30.1562 24.2837 30.1562 23.8362V17.5047C30.1562 16.7215 29.8451 15.9703 29.2913 15.4165C28.7375 14.8627 27.9863 14.5516 27.2031 14.5516H17.9219C17.5862 14.5516 17.2643 14.6849 17.0269 14.9222C16.7896 15.1596 16.6562 15.4815 16.6562 15.8172V17.9299ZM7.375 10.3362C7.59878 10.3362 7.81339 10.4251 7.97162 10.5833C8.12985 10.7415 8.21875 10.9562 8.21875 11.1799V19.6174H16.6562V20.0393C16.6562 20.1512 16.7007 20.2585 16.7798 20.3376C16.8589 20.4167 16.9662 20.4612 17.0781 20.4612H28.4688V23.8362H6.53125V11.1799C6.53125 10.9562 6.62014 10.7415 6.77838 10.5833C6.93661 10.4251 7.15122 10.3362 7.375 10.3362Z" fill="#5D93FF"/>
</svg>
