<svg width="32" height="34" viewBox="0 0 32 34" fill="none" xmlns="http://www.w3.org/2000/svg">
<path d="M16 19.28C8.008 19.28 5.2 23.33 5.2 26.03V30.08H26.8V26.03C26.8 23.33 23.992 19.28 16 19.28Z" fill="#45B1E1"/>
<path d="M15.7469 17.4237C19.335 17.4237 22.2437 14.5149 22.2437 10.9268C22.2437 7.33868 19.335 4.42993 15.7469 4.42993C12.1587 4.42993 9.25 7.33868 9.25 10.9268C9.25 14.5149 12.1587 17.4237 15.7469 17.4237Z" fill="#45B1E1"/>
<g clip-path="url(#clip0_1_2854)">
<path d="M8.07103 14.0463L7.79337 14.4498C7.9836 14.5807 8.21122 14.6453 8.43629 14.6452C8.43634 14.6452 8.43638 14.6452 8.43643 14.6452H10.7173C10.9713 14.6452 11.2295 14.5627 11.4324 14.3952C11.638 14.2255 11.7774 13.9729 11.7774 13.6845V9.91774C11.7774 9.62936 11.638 9.37679 11.4324 9.20707C11.2296 9.03957 10.9713 8.95704 10.7173 8.95704H9.46665C9.57546 8.48847 9.73027 8.0269 9.93009 7.57687C10.3597 6.63236 10.9997 5.82421 11.9174 5.24843L11.9174 5.24842C12.8323 4.67441 14.0917 4.28653 15.8496 4.28653C17.6075 4.28653 18.8679 4.67533 19.7805 5.24833L19.7806 5.24843C20.6992 5.82475 21.3415 6.6346 21.7698 7.57738L8.07103 14.0463ZM8.07103 14.0463L7.79337 14.4498C7.60209 14.3182 7.45107 14.1196 7.39692 13.8753L7.3968 13.8747C6.99203 12.038 6.88347 9.23725 7.96964 6.84327L8.07103 14.0463ZM14.8761 14.2933L14.5642 13.9156C14.3587 14.0853 14.2192 14.3379 14.2192 14.6262V15.5679C14.2192 15.8563 14.3587 16.1089 14.5642 16.2786L14.8761 15.9009L14.5642 16.2786C14.7671 16.4461 15.0253 16.5286 15.2793 16.5286H16.3824C17.9602 16.6286 20.5612 16.2933 22.3788 14.6452H23.2639C23.2639 14.6452 23.264 14.6452 23.264 14.6452C23.4891 14.6453 23.7167 14.5807 23.9069 14.4498C24.0982 14.3182 24.2492 14.1196 24.3034 13.8753L24.3036 13.8744C24.7071 12.0381 24.8169 9.23728 23.7306 6.84315C23.1803 5.62845 22.3103 4.49576 20.9937 3.66906L20.9935 3.66894C19.6719 2.83984 17.9717 2.36514 15.8496 2.36514C13.729 2.36514 12.0287 2.83876 10.7068 3.66892L14.8761 14.2933ZM14.8761 14.2933L14.5642 13.9156C14.7671 13.7481 15.0253 13.6655 15.2793 13.6655H16.4198C16.6739 13.6655 16.9321 13.7481 17.135 13.9156C17.3344 14.0802 17.4716 14.3229 17.4796 14.6006M14.8761 14.2933L17.4796 14.6006M17.4796 14.6006C18.273 14.5367 19.1661 14.3338 19.9542 13.9212M17.4796 14.6006L19.9542 13.9212M19.9542 13.9212C19.9331 13.8452 19.9218 13.7659 19.9218 13.6848V13.6845V9.91774C19.9218 9.62936 20.0612 9.37679 20.2668 9.20707C20.4696 9.03957 20.7278 8.95704 20.9819 8.95704H22.2295M19.9542 13.9212L22.2295 8.95704M22.2295 8.95704C22.1201 8.48155 21.9691 8.01724 21.7699 7.5777L22.2295 8.95704ZM10.7067 3.669C9.38972 4.49498 8.51987 5.6298 7.96969 6.84315L10.7067 3.669Z" fill="#45B1E1" stroke="white" stroke-width="0.979688"/>
<path d="M13.3 10.955C13.3 13.1917 14.1162 16.355 12.625 16.355C11.275 15.68 9.25 13.655 9.25 10.955C9.25 8.71827 10.6 5.55499 11.95 6.23003C12.625 5.55499 13.3 8.71823 13.3 10.955Z" fill="#45B1E1"/>
</g>
<defs>
<clipPath id="clip0_1_2854">
<rect width="17.55" height="17.55" fill="white" transform="translate(10.6 0.155029)"/>
</clipPath>
</defs>
</svg>
