<svg width="19" height="23" viewBox="0 0 19 23" fill="none" xmlns="http://www.w3.org/2000/svg">
<path d="M7.17167 10.1421H5.61612V11.6976H7.17167V10.1421ZM10.2828 10.1421H8.72723V11.6976H10.2828V10.1421ZM13.3939 10.1421H11.8383V11.6976H13.3939V10.1421ZM14.9494 4.69765H14.1717V3.14209H12.6161V4.69765H6.39389V3.14209H4.83834V4.69765H4.06056C3.19723 4.69765 2.51278 5.39765 2.51278 6.2532L2.505 17.1421C2.505 17.9976 3.19723 18.6976 4.06056 18.6976H14.9494C15.805 18.6976 16.505 17.9976 16.505 17.1421V6.2532C16.505 5.39765 15.805 4.69765 14.9494 4.69765ZM14.9494 17.1421H4.06056V8.58654H14.9494V17.1421Z" fill="white"/>
</svg>
