<svg width="15" height="16" viewBox="0 0 15 16" fill="none" xmlns="http://www.w3.org/2000/svg">
<path d="M5.17155 7.14209H3.61599V8.69765H5.17155V7.14209ZM8.28266 7.14209H6.72711V8.69765H8.28266V7.14209ZM11.3938 7.14209H9.83822V8.69765H11.3938V7.14209ZM12.9493 1.69765H12.1715V0.14209H10.616V1.69765H4.39377V0.14209H2.83822V1.69765H2.06044C1.19711 1.69765 0.512661 2.39765 0.512661 3.2532L0.504883 14.1421C0.504883 14.9976 1.19711 15.6976 2.06044 15.6976H12.9493C13.8049 15.6976 14.5049 14.9976 14.5049 14.1421V3.2532C14.5049 2.39765 13.8049 1.69765 12.9493 1.69765ZM12.9493 14.1421H2.06044V5.58654H12.9493V14.1421Z" fill="white"/>
</svg>
