<svg width="28" height="32" viewBox="0 0 28 32" fill="none" xmlns="http://www.w3.org/2000/svg">
<path d="M14 19.28C6.008 19.28 3.2 23.33 3.2 26.03V30.08H24.8V26.03C24.8 23.33 21.992 19.28 14 19.28Z" fill="#45B1E1"/>
<path d="M13.7469 17.4237C17.335 17.4237 20.2437 14.5149 20.2437 10.9268C20.2437 7.33868 17.335 4.42993 13.7469 4.42993C10.1587 4.42993 7.25 7.33868 7.25 10.9268C7.25 14.5149 10.1587 17.4237 13.7469 17.4237Z" fill="#45B1E1"/>
<g clip-path="url(#clip0_1_2855)">
<path d="M6.07103 14.0463L5.79337 14.4498C5.9836 14.5807 6.21122 14.6453 6.43629 14.6452C6.43634 14.6452 6.43638 14.6452 6.43643 14.6452H8.71731C8.97134 14.6452 9.22955 14.5627 9.43242 14.3952C9.63796 14.2255 9.7774 13.9729 9.7774 13.6845V9.91774C9.7774 9.62936 9.63796 9.37679 9.43242 9.20707C9.22955 9.03957 8.97134 8.95704 8.71731 8.95704H7.46665C7.57546 8.48847 7.73027 8.0269 7.93009 7.57687C8.35968 6.63236 8.99971 5.82421 9.91742 5.24843L9.91743 5.24842C10.8323 4.67441 12.0917 4.28653 13.8496 4.28653C15.6075 4.28653 16.8679 4.67533 17.7805 5.24833L17.7806 5.24843C18.6992 5.82475 19.3415 6.6346 19.7698 7.57738L6.07103 14.0463ZM6.07103 14.0463L5.79337 14.4498C5.60209 14.3182 5.45107 14.1196 5.39692 13.8753L5.3968 13.8747C4.99203 12.038 4.88347 9.23725 5.96964 6.84327L6.07103 14.0463ZM12.8761 14.2933L12.5642 13.9156C12.3587 14.0853 12.2192 14.3379 12.2192 14.6262V15.5679C12.2192 15.8563 12.3587 16.1089 12.5642 16.2786L12.8761 15.9009L12.5642 16.2786C12.7671 16.4461 13.0253 16.5286 13.2793 16.5286H14.3824C15.9602 16.6286 18.5612 16.2933 20.3788 14.6452H21.2639C21.2639 14.6452 21.264 14.6452 21.264 14.6452C21.4891 14.6453 21.7167 14.5807 21.9069 14.4498C22.0982 14.3182 22.2492 14.1196 22.3034 13.8753L22.3036 13.8744C22.7071 12.0381 22.8169 9.23728 21.7306 6.84315C21.1803 5.62845 20.3103 4.49576 18.9937 3.66906L18.9935 3.66894C17.6719 2.83984 15.9717 2.36514 13.8496 2.36514C11.729 2.36514 10.0287 2.83876 8.70682 3.66892L12.8761 14.2933ZM12.8761 14.2933L12.5642 13.9156C12.7671 13.7481 13.0253 13.6655 13.2793 13.6655H14.4198C14.6739 13.6655 14.9321 13.7481 15.135 13.9156C15.3344 14.0802 15.4716 14.3229 15.4796 14.6006M12.8761 14.2933L15.4796 14.6006M15.4796 14.6006C16.273 14.5367 17.1661 14.3338 17.9542 13.9212M15.4796 14.6006L17.9542 13.9212M17.9542 13.9212C17.9331 13.8452 17.9218 13.7659 17.9218 13.6848V13.6845V9.91774C17.9218 9.62936 18.0612 9.37679 18.2668 9.20707C18.4696 9.03957 18.7278 8.95704 18.9819 8.95704H20.2295M17.9542 13.9212L20.2295 8.95704M20.2295 8.95704C20.1201 8.48155 19.9691 8.01724 19.7699 7.5777L20.2295 8.95704ZM8.70668 3.669C7.38972 4.49498 6.51987 5.6298 5.96969 6.84315L8.70668 3.669Z" fill="#45B1E1" stroke="white" stroke-width="0.979688"/>
<path d="M11.3 10.955C11.3 13.1917 12.1162 16.355 10.625 16.355C9.275 15.68 7.25 13.655 7.25 10.955C7.25 8.71827 8.6 5.55499 9.95 6.23003C10.625 5.55499 11.3 8.71823 11.3 10.955Z" fill="#45B1E1"/>
</g>
<defs>
<clipPath id="clip0_1_2855">
<rect width="17.55" height="17.55" fill="white" transform="translate(8.60001 0.155029)"/>
</clipPath>
</defs>
</svg>
