<svg width="27" height="28" viewBox="0 0 27 28" fill="none" xmlns="http://www.w3.org/2000/svg">
<path d="M12.6562 13.9299H5.90625V10.9768C5.90625 11.0887 5.9507 11.196 6.02981 11.2751C6.10893 11.3542 6.21624 11.3987 6.32812 11.3987H12.2344C12.3463 11.3987 12.4536 11.3542 12.5327 11.2751C12.6118 11.196 12.6562 11.0887 12.6562 10.9768V10.344C12.6562 9.54581 12.0395 9.07837 11.2328 8.88009L11.1291 8.85224C10.7511 8.73665 8.35566 8.02115 7.38281 8.02368C6.9912 8.02368 6.61563 8.17925 6.33873 8.45616C6.06182 8.73307 5.90625 9.10864 5.90625 9.50024V7.17993C5.90625 6.84752 5.84078 6.51837 5.71357 6.21126C5.58636 5.90416 5.39991 5.62512 5.16486 5.39007C4.92982 5.15502 4.65077 4.96857 4.34367 4.84136C4.03656 4.71415 3.70741 4.64868 3.375 4.64868C3.04259 4.64868 2.71344 4.71415 2.40633 4.84136C2.09923 4.96857 1.82018 5.15502 1.58514 5.39007C1.35009 5.62512 1.16364 5.90416 1.03643 6.21126C0.909223 6.51837 0.84375 6.84752 0.84375 7.17993V19.8362C0.84375 20.2837 1.02154 20.713 1.33801 21.0294C1.65447 21.3459 2.0837 21.5237 2.53125 21.5237H3.375V22.7893C3.375 22.9012 3.41945 23.0085 3.49856 23.0876C3.57768 23.1667 3.68499 23.2112 3.79688 23.2112H5.48438C5.59626 23.2112 5.70357 23.1667 5.78269 23.0876C5.8618 23.0085 5.90625 22.9012 5.90625 22.7893V21.5237H21.0938V22.7893C21.0938 22.9012 21.1382 23.0085 21.2173 23.0876C21.2964 23.1667 21.4037 23.2112 21.5156 23.2112H23.2031C23.315 23.2112 23.4223 23.1667 23.5014 23.0876C23.5806 23.0085 23.625 22.9012 23.625 22.7893V21.5237H24.4688C24.9163 21.5237 25.3455 21.3459 25.662 21.0294C25.9785 20.713 26.1562 20.2837 26.1562 19.8362V13.5047C26.1562 12.7215 25.8451 11.9703 25.2913 11.4165C24.7375 10.8627 23.9863 10.5516 23.2031 10.5516H13.9219C13.5862 10.5516 13.2643 10.6849 13.0269 10.9222C12.7896 11.1596 12.6562 11.4815 12.6562 11.8172V13.9299ZM3.375 6.33618C3.59878 6.33618 3.81339 6.42508 3.97162 6.58331C4.12985 6.74154 4.21875 6.95616 4.21875 7.17993V15.6174H12.6562V16.0393C12.6562 16.1512 12.7007 16.2585 12.7798 16.3376C12.8589 16.4167 12.9662 16.4612 13.0781 16.4612H24.4688V19.8362H2.53125V7.17993C2.53125 6.95616 2.62014 6.74154 2.77838 6.58331C2.93661 6.42508 3.15122 6.33618 3.375 6.33618Z" fill="#5D93FF"/>
</svg>
