<svg width="35" height="36" viewBox="0 0 35 36" fill="none" xmlns="http://www.w3.org/2000/svg">
<path d="M21.8759 15.3843C22.5443 15.3995 23.2057 15.5249 23.8334 15.7556C25.2365 16.5022 26.5996 17.3218 27.9171 18.2109C28.0671 18.3092 28.1889 18.445 28.2703 18.6048C28.3517 18.7646 28.3899 18.943 28.3812 19.1221C28.2968 20.6071 27.3248 24.4158 23.3254 24.4158V31.7725C23.3256 31.9394 23.2689 32.1015 23.1646 32.2319C23.0602 32.3623 22.9146 32.4532 22.7517 32.4897C18.685 33.4233 14.4599 33.4253 10.3924 32.4956C10.2287 32.4605 10.0822 32.37 9.97763 32.2393C9.87306 32.1086 9.8169 31.9457 9.81866 31.7784V24.4192C5.81929 24.4192 4.75616 20.6071 4.68866 19.1221C4.67992 18.943 4.71814 18.7646 4.79954 18.6048C4.88093 18.445 5.00269 18.3092 5.15273 18.2109C6.49216 17.3197 7.87785 16.5001 9.30398 15.7556C9.86631 15.5296 10.4622 15.3985 11.0674 15.3674L12.1559 15.7977L12.3752 16.1774C14.0627 19.2234 19.1252 19.4259 20.8127 16.3715L21.049 15.8484L21.8759 15.3843Z" fill="#D86ECC"/>
<path d="M12.075 12.8362C12.075 12.4841 11.7896 12.1987 11.4375 12.1987C11.0854 12.1987 10.8 12.4841 10.8 12.8362H12.075ZM12.075 16.2112V12.8362H10.8V16.2112H12.075Z" fill="#D86ECC"/>
<path d="M22.2 12.8362C22.2 12.4841 21.9146 12.1987 21.5625 12.1987C21.2104 12.1987 20.925 12.4841 20.925 12.8362H22.2ZM22.2 17.0549V12.8362H20.925V17.0549H22.2Z" fill="#D86ECC"/>
<path d="M7.21875 12.8362C10.875 14.5237 19.875 16.8862 26.625 12.8362" stroke="#D86ECC" stroke-width="0.796875" stroke-linecap="round"/>
<path d="M3.79688 3.74243L4.78239 5.14754L6.1875 6.13306L4.78239 7.11858L3.79688 8.52368L2.81136 7.11858L1.40625 6.13306L2.81136 5.14754L3.79688 3.74243Z" fill="#D86ECC"/>
<path d="M32.4844 18.0862L33.4699 19.4913L34.875 20.4768L33.4699 21.4623L32.4844 22.8674L31.4989 21.4623L30.0938 20.4768L31.4989 19.4913L32.4844 18.0862Z" fill="#D86ECC"/>
<path d="M30.8906 0.554932L32.5332 2.89677L34.875 4.53931L32.5332 6.18184L30.8906 8.52368L29.2481 6.18184L26.9062 4.53931L29.2481 2.89677L30.8906 0.554932Z" fill="#D86ECC"/>
</svg>
