<svg width="17" height="17" viewBox="0 0 17 17" fill="none" xmlns="http://www.w3.org/2000/svg">
<path d="M8.5 3.83984C8.91421 3.83984 9.25 3.50406 9.25 3.08984C9.25 2.67563 8.91421 2.33984 8.5 2.33984C8.08579 2.33984 7.75 2.67563 7.75 3.08984C7.75 3.50406 8.08579 3.83984 8.5 3.83984Z" stroke="white" stroke-width="1.5" stroke-linecap="round" stroke-linejoin="round"/>
<path d="M8.5 9.33984C8.91421 9.33984 9.25 9.00406 9.25 8.58984C9.25 8.17563 8.91421 7.83984 8.5 7.83984C8.08579 7.83984 7.75 8.17563 7.75 8.58984C7.75 9.00406 8.08579 9.33984 8.5 9.33984Z" stroke="white" stroke-width="1.5" stroke-linecap="round" stroke-linejoin="round"/>
<path d="M8.5 14.8398C8.91421 14.8398 9.25 14.5041 9.25 14.0898C9.25 13.6756 8.91421 13.3398 8.5 13.3398C8.08579 13.3398 7.75 13.6756 7.75 14.0898C7.75 14.5041 8.08579 14.8398 8.5 14.8398Z" stroke="white" stroke-width="1.5" stroke-linecap="round" stroke-linejoin="round"/>
</svg>
