<svg width="16" height="17" viewBox="0 0 16 17" fill="none" xmlns="http://www.w3.org/2000/svg">
<path d="M8 3.84009C8.41421 3.84009 8.75 3.5043 8.75 3.09009C8.75 2.67587 8.41421 2.34009 8 2.34009C7.58579 2.34009 7.25 2.67587 7.25 3.09009C7.25 3.5043 7.58579 3.84009 8 3.84009Z" stroke="black" stroke-width="1.5" stroke-linecap="round" stroke-linejoin="round"/>
<path d="M8 9.34009C8.41421 9.34009 8.75 9.0043 8.75 8.59009C8.75 8.17587 8.41421 7.84009 8 7.84009C7.58579 7.84009 7.25 8.17587 7.25 8.59009C7.25 9.0043 7.58579 9.34009 8 9.34009Z" stroke="black" stroke-width="1.5" stroke-linecap="round" stroke-linejoin="round"/>
<path d="M8 14.8401C8.41421 14.8401 8.75 14.5043 8.75 14.0901C8.75 13.6759 8.41421 13.3401 8 13.3401C7.58579 13.3401 7.25 13.6759 7.25 14.0901C7.25 14.5043 7.58579 14.8401 8 14.8401Z" stroke="black" stroke-width="1.5" stroke-linecap="round" stroke-linejoin="round"/>
</svg>
