<svg width="22" height="21" viewBox="0 0 22 21" fill="none" xmlns="http://www.w3.org/2000/svg">
<path d="M9.41464 5.73339H13.0915V5.04397C13.0915 4.53841 12.6778 4.12476 12.1723 4.12476H2.52054C2.01497 4.12476 1.60132 4.53841 1.60132 5.04397V11.2486C1.60132 11.7542 2.01497 12.1678 2.52054 12.1678H3.89936V14.4659L6.1974 12.1678H7.57622V7.5718C7.57622 6.56068 8.40351 5.73339 9.41464 5.73339Z" fill="#6C7989"/>
<path d="M19.0664 6.65259H9.4147C8.90914 6.65259 8.49548 7.06624 8.49548 7.5718V13.7765C8.49548 14.282 8.90914 14.6957 9.4147 14.6957H15.3896L17.6877 16.9938V14.6957H19.0664C19.5719 14.6957 19.9857 14.282 19.9857 13.7765V7.5718C19.9857 7.06624 19.5719 6.65259 19.0664 6.65259Z" fill="#6C7989"/>
</svg>
