<svg width="11" height="11" viewBox="0 0 11 11" fill="none" xmlns="http://www.w3.org/2000/svg">
<path d="M8.77821 10.1924C9.16873 10.5829 9.8019 10.5829 10.1924 10.1924C10.5829 9.80186 10.5829 9.1687 10.1924 8.77818L6.65691 5.24267L10.1924 1.70719C10.5829 1.31666 10.5829 0.683499 10.1924 0.292975C9.80186 -0.0975494 9.1687 -0.0975494 8.77817 0.292975L5.2427 3.82845L1.70714 0.292893C1.31662 -0.0976312 0.683451 -0.097631 0.292926 0.292893C-0.0975981 0.683418 -0.0975985 1.31658 0.292926 1.70711L3.82848 5.24267L0.292893 8.77826C-0.0976312 9.16878 -0.0976309 9.80194 0.292893 10.1925C0.683418 10.583 1.31658 10.583 1.70711 10.1925L5.2427 6.65688L8.77821 10.1924Z" fill="#757575"/>
</svg>
