<svg width="23" height="22" viewBox="0 0 23 22" fill="none" xmlns="http://www.w3.org/2000/svg">
<g clip-path="url(#clip0_30_1908)">
<path d="M17.1532 11.9668C16.8667 12.0384 16.5624 12.0957 16.2401 12.1387C15.9178 12.1816 15.5848 12.2031 15.2411 12.2031C14.2671 12.2031 13.3361 12.0205 12.4481 11.6553C11.5601 11.29 10.7652 10.7565 10.0634 10.0547C9.4045 9.39583 8.88529 8.6224 8.50574 7.73438C8.12618 6.84635 7.9364 5.89388 7.9364 4.87695C7.9364 4.54753 7.95789 4.2181 8.00085 3.88867C8.04382 3.55924 8.10828 3.24414 8.19421 2.94336L8.17273 2.98633C8.18705 2.95768 8.19779 2.92188 8.20496 2.87891C8.21212 2.83594 8.2157 2.79297 8.2157 2.75C8.2157 2.49219 8.12618 2.27376 7.94714 2.09473C7.76811 1.91569 7.54968 1.82617 7.29187 1.82617C7.2489 1.82617 7.20951 1.82975 7.17371 1.83691C7.1379 1.84408 7.09851 1.85482 7.05554 1.86914C6.25346 2.08398 5.50509 2.39193 4.81042 2.79297C4.11576 3.19401 3.4963 3.67383 2.95203 4.23242C2.04968 5.12044 1.37651 6.13021 0.932495 7.26172C0.488485 8.39323 0.266479 9.54622 0.266479 10.7207C0.266479 11.8952 0.488485 13.041 0.932495 14.1582C1.37651 15.2897 2.04968 16.2995 2.95203 17.1875C3.35307 17.6029 3.79708 17.9753 4.28406 18.3047C4.78536 18.6484 5.30815 18.9349 5.85242 19.1641C6.39669 19.3932 6.9696 19.5723 7.57117 19.7012C8.15841 19.8158 8.76713 19.873 9.39734 19.873C9.41166 19.873 9.41882 19.873 9.41882 19.873C9.43315 19.873 9.44031 19.873 9.44031 19.873C9.44031 19.873 9.44747 19.873 9.46179 19.873C10.092 19.873 10.7007 19.8158 11.288 19.7012C11.8895 19.5723 12.4624 19.3932 13.0067 19.1641C13.551 18.9349 14.0666 18.6556 14.5536 18.3262C15.0406 17.9824 15.4917 17.6029 15.9071 17.1875C16.4657 16.6432 16.9455 16.0273 17.3466 15.3398C17.7476 14.6523 18.0555 13.9219 18.2704 13.1484V13.084C18.2847 13.041 18.2955 13.0016 18.3026 12.9658C18.3098 12.93 18.3134 12.8906 18.3134 12.8477C18.3134 12.5898 18.2238 12.3714 18.0448 12.1924C17.8658 12.0133 17.6473 11.9238 17.3895 11.9238C17.3466 11.9238 17.3036 11.9274 17.2606 11.9346C17.2177 11.9417 17.1818 11.9525 17.1532 11.9668ZM14.618 15.8984C13.9592 16.5573 13.1858 17.0801 12.2977 17.4668C11.4097 17.8535 10.4572 18.0469 9.44031 18.0469C9.44031 18.0469 9.43315 18.0469 9.41882 18.0469C8.4019 18.0469 7.44942 17.8535 6.5614 17.4668C5.67338 17.0801 4.89994 16.5573 4.24109 15.8984C3.52494 15.1823 2.98783 14.373 2.62976 13.4707C2.27169 12.5684 2.09265 11.6481 2.09265 10.71C2.09265 9.77181 2.27169 8.85156 2.62976 7.94922C2.98783 7.04688 3.52494 6.23763 4.24109 5.52148C4.51322 5.26367 4.80326 5.02018 5.11121 4.79102C5.41915 4.56185 5.745 4.36133 6.08875 4.18945L6.13171 4.16797C6.11739 4.26823 6.11023 4.37923 6.11023 4.50098C6.11023 4.62272 6.11023 4.74805 6.11023 4.87695C6.11023 5.50716 6.16752 6.12305 6.2821 6.72461C6.41101 7.32617 6.59005 7.89909 6.81921 8.44336C7.04838 8.98763 7.32768 9.51042 7.6571 10.0117C7.98653 10.4987 8.35893 10.9499 8.77429 11.3652C9.18966 11.7806 9.64083 12.153 10.1278 12.4824C10.6148 12.8118 11.134 13.0911 11.6854 13.3203C12.2369 13.5495 12.8062 13.7285 13.3934 13.8574C13.995 13.9863 14.6109 14.0508 15.2411 14.0508C15.37 14.0508 15.4989 14.0472 15.6278 14.04C15.7567 14.0329 15.8856 14.0221 16.0145 14.0078H15.9716C15.7854 14.3802 15.5777 14.7204 15.3485 15.0283C15.1193 15.3363 14.8759 15.6263 14.618 15.8984Z" fill="white"/>
</g>
<defs>
<clipPath id="clip0_30_1908">
<rect width="22" height="22" fill="white" transform="matrix(1 0 0 -1 0.266479 22)"/>
</clipPath>
</defs>
</svg>
