<svg width="14" height="13" viewBox="0 0 14 13" fill="none" xmlns="http://www.w3.org/2000/svg">
<path d="M6.97466 9.24922C6.43677 9.24922 5.98354 9.06494 5.61499 8.69639C5.24644 8.32783 5.06216 7.87461 5.06216 7.33672C5.06216 6.99805 5.14683 6.6793 5.31616 6.38047C5.4855 6.08164 5.71958 5.85254 6.01841 5.69316L12.2042 2.10723L8.67798 8.20332C8.5186 8.52207 8.28452 8.77607 7.97573 8.96533C7.66694 9.15459 7.33325 9.24922 6.97466 9.24922ZM6.97466 0.97168C8.09028 0.97168 9.14614 1.25059 10.1422 1.8084L8.79751 2.58535C8.21978 2.36621 7.61216 2.25664 6.97466 2.25664C6.05825 2.25664 5.20659 2.48574 4.41968 2.94394C3.63276 3.40215 3.01021 4.01973 2.552 4.79668C2.0938 5.57363 1.8647 6.42031 1.8647 7.33672C1.8647 8.03398 1.99917 8.69141 2.26812 9.30898C2.53706 9.92656 2.90063 10.4744 3.35884 10.9525C3.49829 11.0721 3.56802 11.2215 3.56802 11.4008C3.56802 11.5801 3.50327 11.7295 3.37378 11.849C3.24429 11.9686 3.08989 12.0283 2.9106 12.0283C2.7313 12.0283 2.58188 11.9686 2.46235 11.849C1.88462 11.2713 1.4314 10.5939 1.10269 9.81699C0.773975 9.04004 0.609619 8.22324 0.609619 7.3666C0.609619 6.50996 0.768994 5.68818 1.08774 4.90127C1.40649 4.11436 1.8647 3.42207 2.46235 2.82441C3.06001 2.22676 3.75229 1.76855 4.53921 1.4498C5.32612 1.13105 6.13794 0.97168 6.97466 0.97168ZM13.3397 7.33672C13.3397 8.21328 13.1753 9.04004 12.8466 9.81699C12.5179 10.5939 12.0647 11.2713 11.487 11.849C11.3674 11.9686 11.218 12.0283 11.0387 12.0283C10.8594 12.0283 10.71 11.9686 10.5905 11.849C10.4709 11.7295 10.4112 11.5801 10.4112 11.4008C10.4112 11.2215 10.4709 11.0721 10.5905 10.9525C11.0487 10.4744 11.4123 9.92656 11.6812 9.30898C11.9501 8.69141 12.0846 8.03398 12.0846 7.33672C12.0846 6.69922 11.9651 6.08164 11.726 5.48398L12.503 4.16914C13.0608 5.18516 13.3397 6.24102 13.3397 7.33672Z" fill="#0070C0"/>
</svg>
