<svg width="27" height="28" viewBox="0 0 27 28" fill="none" xmlns="http://www.w3.org/2000/svg">
<path d="M15.196 14.8847C15.2464 14.8165 15.3122 14.7613 15.3882 14.7236C15.4641 14.686 15.548 14.667 15.6327 14.6682C15.7175 14.6695 15.8008 14.6909 15.8756 14.7308C15.9504 14.7707 16.0146 14.8279 16.0629 14.8975L16.9034 14.3135C17.0597 14.2069 17.28 14.3206 17.28 14.5124V15.8837C17.28 16.0756 17.0597 16.1964 16.9034 16.0827L16.0636 15.5043C16.0154 15.5744 15.951 15.632 15.876 15.6721C15.801 15.7123 15.7175 15.7339 15.6324 15.7351C15.5473 15.7364 15.4632 15.7172 15.387 15.6793C15.3109 15.6414 15.2449 15.5858 15.1946 15.5171L14.374 16.0827C14.2176 16.1964 13.9974 16.0756 13.9974 15.8837V14.5124C13.9974 14.3206 14.2176 14.2069 14.374 14.3135L15.196 14.8847ZM15.6387 18.3919C15.7329 18.3919 15.8233 18.3545 15.8899 18.2878C15.9565 18.2212 15.994 18.1309 15.994 18.0366C15.994 17.9424 15.9565 17.8521 15.8899 17.7854C15.8233 17.7188 15.7329 17.6814 15.6387 17.6814C15.5445 17.6814 15.4541 17.7188 15.3875 17.7854C15.3209 17.8521 15.2834 17.9424 15.2834 18.0366C15.2834 18.1309 15.3209 18.2212 15.3875 18.2878C15.4541 18.3545 15.5445 18.3919 15.6387 18.3919ZM15.994 20.2748C15.994 20.369 15.9565 20.4594 15.8899 20.526C15.8233 20.5926 15.7329 20.6301 15.6387 20.6301C15.5445 20.6301 15.4541 20.5926 15.3875 20.526C15.3209 20.4594 15.2834 20.369 15.2834 20.2748C15.2834 20.1806 15.3209 20.0902 15.3875 20.0236C15.4541 19.957 15.5445 19.9195 15.6387 19.9195C15.7329 19.9195 15.8233 19.957 15.8899 20.0236C15.9565 20.0902 15.994 20.1806 15.994 20.2748Z" fill="#FF7272"/>
<path d="M16.8551 9.0607C16.8191 9.1151 16.7984 9.1782 16.7953 9.24335C16.7922 9.30851 16.8067 9.3733 16.8373 9.43089H17.4768C17.5052 9.38115 17.5194 9.32431 17.5194 9.26036C17.5191 9.20177 17.5045 9.14413 17.4771 9.09235C17.4497 9.04058 17.4101 8.9962 17.3618 8.96299C17.3136 8.92978 17.258 8.90872 17.1998 8.90161C17.1416 8.8945 17.0826 8.90155 17.0278 8.92215C17.0413 8.93272 17.0522 8.94619 17.0597 8.96158C17.0673 8.97696 17.0712 8.99385 17.0713 9.01098C17.0714 9.02811 17.0677 9.04505 17.0603 9.06052C17.0529 9.07599 17.0422 9.08959 17.0288 9.10031C17.0154 9.11104 16.9998 9.1186 16.9831 9.12244C16.9664 9.12628 16.9491 9.1263 16.9324 9.12249C16.9157 9.11868 16.9001 9.11114 16.8867 9.10044C16.8733 9.08975 16.8625 9.07616 16.8551 9.0607ZM14.4287 9.26036C14.4282 9.20098 14.4131 9.14262 14.3849 9.09038C14.3567 9.03814 14.3161 8.99361 14.2667 8.96067C14.2173 8.92773 14.1605 8.90739 14.1015 8.90142C14.0424 8.89545 13.9827 8.90403 13.9277 8.92641C13.9402 8.93709 13.9502 8.95032 13.957 8.96521C13.9639 8.9801 13.9674 8.9963 13.9674 9.01269C13.9674 9.02908 13.9639 9.04527 13.957 9.06017C13.9502 9.07506 13.9402 9.0883 13.9278 9.09897C13.9153 9.10965 13.9007 9.11751 13.885 9.12201C13.8692 9.12652 13.8527 9.12756 13.8365 9.12507C13.8203 9.12259 13.8048 9.11663 13.7911 9.1076C13.7774 9.09857 13.7659 9.0867 13.7572 9.07278C13.7239 9.12618 13.7053 9.18747 13.7034 9.25039C13.7016 9.31332 13.7164 9.37561 13.7466 9.43089H14.386C14.4144 9.37405 14.4287 9.3172 14.4287 9.26036ZM15.3452 9.20352L14.9829 10.383C14.9047 10.6246 15.0894 10.8733 15.3452 10.8733H15.8852C16.141 10.8733 16.3187 10.6246 16.2476 10.383L15.8852 9.20352C15.8 8.94773 15.4305 8.94773 15.3452 9.20352ZM14.5779 11.328C14.8763 11.4843 15.2316 11.5767 15.6152 11.5767C15.9918 11.5767 16.3471 11.4843 16.6526 11.328C16.7521 11.2783 16.8658 11.3919 16.8018 11.4914C16.6738 11.6897 16.4981 11.8527 16.2908 11.9656C16.0835 12.0785 15.8513 12.1376 15.6152 12.1376C15.3792 12.1376 15.147 12.0785 14.9397 11.9656C14.7324 11.8527 14.5567 11.6897 14.4287 11.4914C14.3647 11.3919 14.4784 11.2712 14.5779 11.328Z" fill="#FF7272"/>
<path d="M19.2503 4.78397L19.5487 4.93318C20.0958 5.21028 20.4013 5.81423 20.2877 6.41818L19.8898 8.59949C19.8831 8.64144 19.8701 8.68216 19.8514 8.72028C19.9549 8.86273 20.0245 9.02695 20.0548 9.2004C20.0852 9.37386 20.0755 9.55195 20.0265 9.72107C19.9774 9.8902 19.8904 10.0459 19.772 10.1762C19.6536 10.3066 19.507 10.4081 19.3434 10.4732L19.251 11.7969C19.1899 12.452 18.8886 13.0076 18.441 13.3849C19.265 13.7035 20.0289 14.1595 20.7005 14.7335C21.56 15.4651 22.2502 16.3748 22.7233 17.3996C23.1963 18.4244 23.441 19.5398 23.4403 20.6685V23.1667H7.8158V20.6799C7.8158 19.9466 7.91669 19.2375 8.10569 18.5639C8.5311 17.0293 9.41392 15.6607 10.6366 14.6404V14.6688C11.3731 14.0558 12.2161 13.5835 13.1234 13.2755C12.7244 12.8803 12.4784 12.3563 12.4292 11.7969L12.344 10.5534C12.0911 10.5534 11.8451 10.4704 11.644 10.317C11.4429 10.1637 11.2976 9.94852 11.2307 9.70463C11.1637 9.46073 11.1786 9.20159 11.2732 8.96702C11.3678 8.73245 11.5368 8.53543 11.7542 8.40623L11.3919 6.41818C11.2782 5.81423 11.5837 5.21028 12.1308 4.93318L12.4292 4.78397C12.6424 4.67739 12.8342 4.54239 12.9977 4.37186L13.7153 3.66134C13.9126 3.46396 14.167 3.33372 14.4425 3.28908C14.718 3.24444 15.0005 3.28768 15.25 3.41265C15.6337 3.54765 16.0458 3.54765 16.4224 3.41265C17.0903 3.11423 17.6516 3.35581 18.0921 3.78923L18.6748 4.37186C18.8453 4.53528 19.0371 4.67739 19.2503 4.78397ZM14.7463 21.7457H16.5155C17.2183 20.3556 17.5848 18.8199 17.5855 17.2622V13.8339C17.3913 13.887 17.1883 13.9138 16.9766 13.9142H14.7029C14.347 13.9151 13.9958 13.8323 13.6776 13.6727V17.3049C13.6776 18.8588 14.0492 20.3786 14.7463 21.7457Z" fill="#FF7272"/>
<path d="M2.40418 13.1484H2.33313V13.2195V13.7527V13.8238H2.40418H3.58402H3.65507V13.7527V13.2195V13.1484H3.58402H2.40418ZM2.40418 14.0899H2.33313V14.1609V16.1804C2.04719 16.375 1.80673 16.5932 1.63531 16.8136C1.45863 17.0408 1.35 17.2772 1.35 17.4963V23.4099H1.42105L1.35 23.4099L1.35 23.41L1.35 23.4102L1.35 23.4107L1.35002 23.4121L1.35014 23.4166C1.35026 23.4202 1.3505 23.4252 1.35096 23.4314C1.35187 23.4437 1.35366 23.4608 1.35717 23.4811C1.36415 23.5215 1.37823 23.5763 1.40711 23.6319C1.43617 23.6879 1.48072 23.7457 1.54852 23.7892C1.61663 23.8329 1.70405 23.8596 1.81426 23.8596H4.17228C4.28337 23.8596 4.37142 23.8318 4.43987 23.7863C4.50789 23.7411 4.55237 23.6814 4.5813 23.6238C4.61007 23.5665 4.62411 23.51 4.63106 23.4685C4.63456 23.4475 4.63634 23.4299 4.63724 23.4173C4.6377 23.4109 4.63794 23.4058 4.63806 23.4021L4.63818 23.3976L4.63819 23.3961L4.6382 23.3956L4.6382 23.3954L4.6382 23.3954L4.56714 23.3953H4.6382V17.4963C4.6382 17.2772 4.52956 17.0408 4.35288 16.8136C4.18146 16.5932 3.94099 16.3749 3.65507 16.1804V14.1609V14.0899H3.58402H2.40418ZM6.2037 18.2969H6.15248L6.13629 18.3455L6.08977 18.485C5.89479 19.07 5.79403 19.8326 5.94658 20.4937C6.02304 20.8251 6.16769 21.1396 6.41718 21.3748L6.46094 21.3284L6.41718 21.3748C6.61101 21.5576 6.86436 21.6821 7.16428 21.7292V23.3038C6.95012 23.3577 6.71452 23.4577 6.52951 23.5458C6.42822 23.594 6.34089 23.6392 6.27884 23.6723C6.2478 23.6889 6.22305 23.7025 6.206 23.7119L6.18637 23.7229L6.18121 23.7259L6.17985 23.7266L6.17949 23.7269L6.17938 23.7269L6.17935 23.7269L6.21472 23.7886L6.17933 23.7269L5.94835 23.8596H6.21472H8.6642H8.93056L8.69959 23.7269L8.6642 23.7886L8.69957 23.7269L8.69954 23.7269L8.69944 23.7269L8.69907 23.7267L8.69771 23.7259L8.69255 23.7229L8.67292 23.7119C8.65587 23.7025 8.63112 23.6889 8.60008 23.6723C8.53803 23.6391 8.4507 23.594 8.34942 23.5458C8.16441 23.4577 7.9288 23.3577 7.71464 23.3038V21.7292C8.01458 21.6821 8.26792 21.5576 8.46174 21.3748C8.71124 21.1396 8.85586 20.8251 8.93234 20.4937L8.93234 20.4937C9.0849 19.8326 8.98414 19.07 8.78915 18.485L8.74266 18.3455L8.72647 18.2969H8.67525H6.2037ZM6.55689 18.8472H8.32203C8.36732 19.016 8.40298 19.1991 8.42555 19.3855H6.45337C6.47594 19.1991 6.5116 19.016 6.55689 18.8472Z" fill="#FF7272" stroke="white" stroke-width="0.142105"/>
<rect y="23.1667" width="12.7895" height="1.42105" fill="#FF7272"/>
<path d="M18.6507 8.80567C18.6507 11.1602 17.7707 13.0688 15.8086 13.0688C13.8466 13.0688 12.9665 11.1602 12.9665 8.80567C12.9665 6.4512 13.8465 6.11426 15.8086 6.11426C17.7707 6.11426 18.6507 6.4512 18.6507 8.80567Z" fill="white"/>
</svg>
