<svg width="22" height="21" viewBox="0 0 22 21" fill="none" xmlns="http://www.w3.org/2000/svg">
<path d="M9.19041 13.711V12.9082H3.57899L3.57097 16.1193C3.57097 17.0104 4.28544 17.7249 5.17652 17.7249H16.4154C17.3065 17.7249 18.021 17.0104 18.021 16.1193V12.9082H12.4015V13.711H9.19041ZM17.2182 6.48601H13.999V4.88046L12.3935 3.2749H9.18238L7.57683 4.88046V6.48601H4.37374C3.49069 6.48601 2.76819 7.20851 2.76819 8.09157V10.4999C2.76819 11.391 3.48266 12.1055 4.37374 12.1055H9.19041V10.4999H12.4015V12.1055H17.2182C18.1012 12.1055 18.8237 11.383 18.8237 10.4999V8.09157C18.8237 7.20851 18.1012 6.48601 17.2182 6.48601ZM12.4015 6.48601H9.19041V4.88046H12.4015V6.48601Z" fill="#6C7989"/>
</svg>
