<svg width="16" height="18" viewBox="0 0 16 18" fill="none" xmlns="http://www.w3.org/2000/svg">
<path d="M8.0749 9.54716C8.03119 9.54092 7.97499 9.54092 7.92504 9.54716C6.82601 9.5097 5.95178 8.61049 5.95178 7.50522C5.95178 6.37497 6.86348 5.45703 7.99997 5.45703C9.13022 5.45703 10.0482 6.37497 10.0482 7.50522C10.0419 8.61049 9.17393 9.5097 8.0749 9.54716Z" stroke="white" stroke-width="0.936672" stroke-linecap="round" stroke-linejoin="round"/>
<path d="M12.2088 13.6685C11.0972 14.6864 9.62354 15.3046 7.99998 15.3046C6.37641 15.3046 4.90272 14.6864 3.7912 13.6685C3.85364 13.0815 4.22831 12.5071 4.89647 12.0574C6.60746 10.921 9.40498 10.921 11.1035 12.0574C11.7716 12.5071 12.1463 13.0815 12.2088 13.6685Z" stroke="white" stroke-width="0.936672" stroke-linecap="round" stroke-linejoin="round"/>
<path d="M7.99997 15.3046C11.4487 15.3046 14.2444 12.5089 14.2444 9.06015C14.2444 5.61142 11.4487 2.81567 7.99997 2.81567C4.55124 2.81567 1.75549 5.61142 1.75549 9.06015C1.75549 12.5089 4.55124 15.3046 7.99997 15.3046Z" stroke="white" stroke-width="0.936672" stroke-linecap="round" stroke-linejoin="round"/>
</svg>
