<svg width="136" height="26" viewBox="0 0 136 26" fill="none" xmlns="http://www.w3.org/2000/svg">
<path d="M11.4643 6.91594V8.19007C10.5023 7.15002 9.04632 6.60411 7.27818 6.60411C3.63835 6.60411 0.83017 9.36013 0.83017 13.598C0.83017 17.8361 3.63822 20.6182 7.27818 20.6182C9.04619 20.6182 10.5023 20.0462 11.4643 19.0061V26.0002H14.7662V6.91606H11.4643V6.91594ZM8.00628 9.54193C9.90431 9.54193 11.6204 11.0239 11.6204 13.5979C11.6204 16.198 9.90431 17.68 8.00628 17.68C5.84833 17.68 4.13235 16.1981 4.13235 13.5979C4.13235 11.0239 5.84833 9.54193 8.00628 9.54193ZM22.901 20.618C26.9051 20.618 28.9591 17.706 28.9591 14.7941V6.91594H25.657V14.4299C25.657 16.0939 24.8511 17.68 22.901 17.68C20.9511 17.68 20.145 16.094 20.145 14.4299V6.91594H16.843V14.7941C16.843 17.706 18.8969 20.618 22.901 20.618ZM32.6736 4.03002C33.7656 4.03002 34.6496 3.12013 34.6756 2.02805C34.7017 0.910022 33.7657 0 32.6736 0C31.5556 0 30.6456 0.909896 30.6456 2.02805C30.6456 3.12 31.5555 4.03002 32.6736 4.03002ZM31.0355 6.91594V20.306H34.3376V6.91594H31.0355ZM39.0923 13.624C39.0923 11.258 40.5742 9.69804 42.7322 9.69804C44.5262 9.69804 45.7221 10.4 46.6582 11.466L48.4002 8.89196C47.4121 7.82596 45.5662 6.62994 42.7062 6.62994C38.4681 6.62994 35.7901 9.67196 35.7901 13.624C35.7901 17.576 38.4681 20.618 42.7062 20.618C45.5662 20.618 47.4121 19.422 48.4002 18.356L46.6582 15.7819C45.7221 16.8481 44.5262 17.5499 42.7322 17.5499C40.5742 17.5499 39.0923 15.9899 39.0923 13.624ZM56.5349 13.0259L61.1889 6.91594H57.2109L52.7649 13.0781V0.286122H49.4628V20.3061H52.7649V13.4161L58.2769 20.3061H62.281L56.535 13.026L56.5349 13.0259ZM62.4075 6.91594V20.306H65.7096V12.298C65.7096 10.1661 66.5155 9.51598 67.3996 9.51598C68.3615 9.51598 68.9336 10.166 68.9336 11.1279H72.1576C72.2876 8.2159 70.8056 6.60399 68.6997 6.60399C67.0096 6.60399 66.1516 7.38399 65.7097 8.18994V6.91581H62.4076L62.4075 6.91594ZM79.2002 20.6699C83.7243 20.6699 86.2982 17.316 86.2982 13.624C86.2982 9.95795 83.7243 6.60399 79.2002 6.60399C74.6762 6.60399 72.1023 9.95782 72.1023 13.624C72.1023 17.316 74.6762 20.6699 79.2002 20.6699ZM79.2002 9.54193C81.3582 9.54193 82.9963 11.154 82.9963 13.624C82.9963 16.1201 81.3582 17.7319 79.2002 17.7319C77.0423 17.7319 75.4042 16.12 75.4042 13.624C75.4042 11.154 77.0423 9.54193 79.2002 9.54193ZM94.017 20.6699C98.541 20.6699 101.115 17.316 101.115 13.624C101.115 9.95795 98.541 6.60399 94.017 6.60399C89.493 6.60399 86.919 9.95782 86.919 13.624C86.919 17.316 89.493 20.6699 94.017 20.6699ZM94.017 9.54193C96.1749 9.54193 97.813 11.154 97.813 13.624C97.813 16.1201 96.1749 17.7319 94.017 17.7319C91.859 17.7319 90.2209 16.12 90.2209 13.624C90.2209 11.154 91.859 9.54193 94.017 9.54193ZM114.216 8.76193C113.54 7.51388 112.058 6.60399 109.9 6.60399C107.664 6.60399 106.468 7.40994 105.844 8.29388V6.91594H102.542V20.306H105.844V12.792C105.844 10.6601 107.144 9.54193 108.912 9.54193C110.888 9.54193 111.668 10.66 111.668 12.792V20.306H114.97V12.792C114.97 10.6601 116.27 9.54193 117.934 9.54193C119.91 9.54193 120.794 10.66 120.794 12.792V20.306H124.096V12.4278C124.096 8.9959 122.432 6.60399 119.026 6.60399C116.452 6.60399 114.996 7.51388 114.216 8.76193H114.216ZM130.176 20.6179C133.088 20.6179 135.168 18.7199 135.168 16.2499C135.168 13.7798 133.192 12.5838 131.372 11.9598L130.228 11.5697C129.474 11.3098 129.006 10.9458 129.006 10.3478C129.006 9.85376 129.448 9.41179 130.202 9.41179C131.138 9.41179 131.814 9.85376 132.36 10.6598L134.518 8.78789C133.816 7.61782 132.282 6.60386 130.072 6.60386C127.784 6.60386 125.912 8.31984 125.912 10.3478C125.912 12.3238 127.238 13.5978 129.084 14.1957L130.28 14.5858C131.294 14.9237 131.97 15.3917 131.97 16.2497C131.97 17.1857 131.138 17.7316 130.176 17.7316C128.72 17.7316 127.706 16.9777 127.186 15.8858L125.028 18.0437C125.808 19.3958 127.498 20.6178 130.176 20.6178L130.176 20.6179Z" fill="#D961AB"/>
</svg>
