<svg width="38" height="37" viewBox="0 0 38 37" fill="none" xmlns="http://www.w3.org/2000/svg">
<path fill-rule="evenodd" clip-rule="evenodd" d="M32.468 36.9837L32.4707 31.211C32.4692 30.7349 32.6108 30.6817 32.8275 30.4131C34.6193 28.1887 35.9487 25.7922 36.6277 22.6579C37.8279 17.1172 36.2215 11.5291 33.5212 8.06381C31.0919 4.94678 27.6018 1.89238 22.2156 0.912981C14.2636 -0.532729 6.9846 3.28791 3.32758 9.27523C0.626928 13.6969 -0.119924 19.2801 1.45367 24.2824C2.25365 26.8252 3.35358 28.5644 4.73839 30.2939C6.006 31.8773 7.78797 33.4279 9.68789 34.5729C14.1829 37.2813 19.8446 37.6624 24.7911 35.9945C25.8779 35.6281 25.4019 35.6074 26.4823 35.9763C28.2175 36.5687 30.5926 37.0999 32.4688 36.984L32.468 36.9837ZM16.5286 27.5839C16.3342 26.9259 15.5154 25.7605 14.9528 23.6852C14.6208 22.4609 14.1814 20.1814 14.3261 18.8206C15.316 18.8033 23.0468 18.7599 23.389 18.8549C23.4779 20.7553 23.7707 22.0391 24.7357 23.5792C25.0338 24.0549 25.3808 24.4163 25.6039 24.7819C26.0689 24.5529 26.8708 23.1313 27.1474 22.5258C28.5212 19.5171 27.9892 16.0756 26.295 13.6199C22.8629 8.64519 15.316 8.23283 11.4503 13.5331C10.3387 15.0569 9.67244 16.9233 9.78171 19.3284C9.88572 21.6188 10.7916 23.3366 11.9066 24.6642C12.9832 25.9462 14.3589 26.9995 16.5286 27.5843V27.5839Z" fill="#D860AA"/>
</svg>
