<svg width="39" height="32" viewBox="0 0 39 32" fill="none" xmlns="http://www.w3.org/2000/svg">
<path d="M29.5579 8.04056H9.11288C8.44661 8.04056 7.90649 8.58067 7.90649 9.24694V9.37393C7.90649 10.0402 8.44661 10.5803 9.11288 10.5803H29.5579C30.2242 10.5803 30.7643 10.0402 30.7643 9.37393V9.24694C30.7643 8.58067 30.2242 8.04056 29.5579 8.04056Z" fill="white"/>
<path d="M29.5579 14.5335H9.11288C8.44661 14.5335 7.90649 15.0737 7.90649 15.7399V15.8669C7.90649 16.5332 8.44661 17.0733 9.11288 17.0733H29.5579C30.2242 17.0733 30.7643 16.5332 30.7643 15.8669V15.7399C30.7643 15.0737 30.2242 14.5335 29.5579 14.5335Z" fill="white"/>
<path d="M29.5579 21.0266H9.11288C8.44661 21.0266 7.90649 21.5667 7.90649 22.2329V22.3599C7.90649 23.0262 8.44661 23.5663 9.11288 23.5663H29.5579C30.2242 23.5663 30.7643 23.0262 30.7643 22.3599V22.2329C30.7643 21.5667 30.2242 21.0266 29.5579 21.0266Z" fill="white"/>
</svg>
