<svg width="21" height="21" viewBox="0 0 21 21" fill="none" xmlns="http://www.w3.org/2000/svg">
<path d="M18.7704 15.5998C18.2604 15.1911 17.8685 14.8276 17.637 14.2425C17.6021 14.1506 17.5746 14.0557 17.5549 13.9593L17.5501 13.9381C17.5182 13.792 17.3891 13.6877 17.2396 13.6873H4.15256C4.00275 13.6877 3.87349 13.7923 3.84194 13.9387C3.82201 14.0382 3.79381 14.1359 3.75795 14.2309C3.52255 14.8242 3.12571 15.1961 2.60742 15.6103V16.4499H18.7837V15.627C18.7837 15.6163 18.7787 15.6064 18.7704 15.5998Z" fill="#6C7989"/>
<path d="M17.4954 11.9874C17.0843 11.6095 16.7893 11.1221 16.6455 10.5825C16.0746 8.21719 14.2488 6.99127 11.7579 6.72942V6.67476C11.7576 6.25273 11.5072 5.87087 11.1204 5.70193V4.97486H11.5455C11.7801 4.97486 11.9704 4.78457 11.9704 4.54981C11.9704 4.31505 11.7801 4.12476 11.5455 4.12476H9.84544C9.61068 4.12476 9.42039 4.31505 9.42039 4.54981C9.42039 4.78457 9.61068 4.97486 9.84544 4.97486H10.2705V5.70193C9.88353 5.87087 9.63331 6.25273 9.633 6.67476V6.72942C7.14228 6.99143 5.31617 8.21687 4.74544 10.5825C4.60169 11.1221 4.30684 11.6095 3.8955 11.9874V12.8373H17.4954V11.9874Z" fill="#6C7989"/>
</svg>
