<svg width="21" height="21" viewBox="0 0 21 21" fill="none" xmlns="http://www.w3.org/2000/svg">
<g clip-path="url(#clip0_21_1831)">
<path d="M5.65896 9.01228C5.65896 9.71648 5.08808 10.2874 4.38388 10.2874C3.67984 10.2874 3.10896 9.71648 3.10896 9.01228C3.10896 8.30823 3.67984 7.73735 4.38388 7.73735C5.08808 7.73735 5.65896 8.30823 5.65896 9.01228Z" fill="#6C7989"/>
<path d="M5.87151 10.2874H8.42151V8.16241H7.99648C6.82774 8.16241 5.87151 9.11864 5.87151 10.2874Z" fill="#6C7989"/>
<path d="M18.834 8.16241H9.05885V13.2624C9.05885 13.7298 9.44147 14.1123 9.9089 14.1123H18.409V15.1749H19.6839V9.0123C19.6839 8.54487 19.3014 8.16241 18.834 8.16241Z" fill="#6C7989"/>
<path d="M2.25893 5.61239C2.25893 5.25114 1.98265 4.97485 1.62139 4.97485C1.26013 4.97485 0.984009 5.25114 0.984009 5.61239V15.1749H2.25893V13.0499H8.4215V10.9249H2.25893V5.61239Z" fill="#6C7989"/>
</g>
<defs>
<clipPath id="clip0_21_1831">
<rect width="20.4" height="20.4" fill="white" transform="translate(0.474609 0.299805)"/>
</clipPath>
</defs>
</svg>
