<svg width="21" height="21" viewBox="0 0 21 21" fill="none" xmlns="http://www.w3.org/2000/svg">
<path fill-rule="evenodd" clip-rule="evenodd" d="M6.66136 15.2355C7.19024 15.2345 7.79006 14.9667 8.26559 14.8498C9.35303 14.5827 9.46449 14.9241 10.5723 14.9171C15.4298 14.8857 17.352 8.87816 13.8522 6.00622C10.2606 3.05852 4.71973 5.86318 5.49166 10.7294C5.55883 11.153 5.61796 11.4119 5.75936 11.7486C5.94228 12.1842 6.13174 12.2804 6.13878 12.7775C6.14658 13.3285 5.96568 13.9961 6.00971 14.5859C6.04795 15.0995 6.11614 15.2363 6.66136 15.2355ZM12.4271 9.25045C12.7673 9.25045 13.0431 9.52356 13.0431 9.86047C13.0431 10.1974 12.7673 10.4705 12.4271 10.4705C12.087 10.4705 11.8112 10.1974 11.8112 9.86047C11.8112 9.52356 12.087 9.25045 12.4271 9.25045ZM8.61029 9.25045C8.95046 9.25045 9.22622 9.52356 9.22622 9.86047C9.22622 10.1974 8.95046 10.4705 8.61029 10.4705C8.27012 10.4705 7.99436 10.1974 7.99436 9.86047C7.99436 9.52356 8.27012 9.25045 8.61029 9.25045ZM10.5187 9.25045C10.8589 9.25045 11.1346 9.52356 11.1346 9.86047C11.1346 10.1974 10.8589 10.4705 10.5187 10.4705C10.1785 10.4705 9.90278 10.1974 9.90278 9.86047C9.90278 9.52356 10.1785 9.25045 10.5187 9.25045Z" fill="#6C7989"/>
<path fill-rule="evenodd" clip-rule="evenodd" d="M3.9468 7.20933C2.53027 7.33467 2.0097 7.12934 1.81899 7.85349C1.6879 8.35013 1.62072 10.8239 1.69947 11.4326C1.74049 11.7501 1.84515 12.0372 2.08292 12.24C2.45605 12.5582 3.7264 12.5336 4.2827 12.3332C4.59066 11.5954 3.43127 7.86919 6.6913 5.2285C8.8312 3.49512 11.7501 3.45974 13.9498 4.91801C15.9921 6.27187 16.9477 8.71246 16.5449 11.7342C16.3605 13.1179 15.7626 14.2129 15.069 14.9697C14.3567 15.7469 13.2222 16.6014 12.0324 16.7813C12.0142 16.7688 11.9966 16.7559 11.9793 16.7429C11.7179 16.268 11.2091 15.9455 10.6244 15.9455C9.7727 15.9455 9.0823 16.6293 9.0823 17.4728C9.0823 17.5022 9.0833 17.5314 9.08481 17.5603C9.08683 17.6168 9.09236 17.6737 9.10142 17.7302C9.22269 18.4843 9.89624 19.0008 10.6158 18.9999H10.6244C11.3158 18.9999 11.9008 18.5493 12.0965 17.9286C12.1018 17.9226 12.1071 17.9169 12.1129 17.9111L12.5323 17.7098C12.7026 17.6565 12.8214 17.6261 13.0171 17.5603C13.9365 17.2508 14.8858 16.628 15.5365 15.9752C16.7182 14.789 16.9281 14.0342 17.4932 12.5089C19.6059 12.4715 19.3435 12.0808 19.3435 9.70524C19.3435 7.08922 19.2916 7.29505 17.106 7.19413C15.7722 4.60203 13.7503 2.86741 10.5738 2.84996C8.26257 2.8375 6.31239 3.88311 5.00555 5.45402C4.50159 6.06006 4.32924 6.52106 3.9468 7.20933Z" fill="#6C7989"/>
</svg>
